<?xml version="1.0" encoding="utf-8"?>
<!-- Generator: Adobe Illustrator 25.0.0, SVG Export Plug-In . SVG Version: 6.00 Build 0)  -->
<svg version="1.1" id="Layer_1" xmlns="http://www.w3.org/2000/svg" xmlns:xlink="http://www.w3.org/1999/xlink" x="0px" y="0px"
	 viewBox="0 0 512 512" style="enable-background:new 0 0 512 512;" xml:space="preserve">
<style type="text/css">
	.st0{fill:#FFFFFF;}
</style>
<g>
	<g>
		<path d="M150.3,0c-27.6,0-50.1,22.5-50.1,50.1s22.5,50.1,50.1,50.1c27.6,0,50.1-22.5,50.1-50.1S177.9,0,150.3,0z M150.3,66.8
			c-9.2,0-16.7-7.5-16.7-16.7s7.5-16.7,16.7-16.7S167,40.9,167,50.1S159.5,66.8,150.3,66.8z"/>
	</g>
</g>
<g>
	<g>
		<ellipse transform="matrix(0.1602 -0.9871 0.9871 0.1602 127.9197 317.3076)" cx="250.4" cy="83.5" rx="16.7" ry="16.7"/>
	</g>
</g>
<g>
	<g>
		<circle cx="295" cy="27.8" r="16.7"/>
	</g>
</g>
<g>
	<g>
		<path d="M441.8,167h20.1c9.2,0,16.7-7.5,16.7-16.7s-7.5-16.7-16.7-16.7h-47.1h-51.7h-5.4l71.5-71.5c6.5-6.5,6.5-17.1,0-23.6
			s-17.1-6.5-23.6,0l-95.1,95.1H148.9H97.2H50.1c-9.2,0-16.7,7.5-16.7,16.7S40.9,167,50.1,167h20.1C47,202.1,33.4,244.1,33.4,289.4
			c0,46,13.9,88.7,37.8,124.1c-21.7,5.5-37.8,25-37.8,48.4c0,27.7,22.4,50.1,50.1,50.1c23.4,0,42.9-16.1,48.4-37.8
			C167.3,498.1,210,512,256,512c46,0,88.7-13.9,124.1-37.8c5.5,21.7,25,37.8,48.4,37.8c27.7,0,50.1-22.4,50.1-50.1
			c0-23.4-16.1-42.9-37.8-48.4c23.9-35.5,37.8-78.2,37.8-124.1C478.6,244.1,465,202.1,441.8,167z M83.5,478.6
			c-9.2,0-16.7-7.5-16.7-16.7s7.5-16.7,16.7-16.7c9.2,0,16.7,7.5,16.7,16.7S92.7,478.6,83.5,478.6z M445.2,461.9
			c0,9.2-7.5,16.7-16.7,16.7s-16.7-7.5-16.7-16.7s7.5-16.7,16.7-16.7C437.7,445.2,445.2,452.7,445.2,461.9z"/>
	</g>
</g>
<g>
	<g>
		<path class="st0" d="M395.7,278.3c-9.4-0.7-17,6.7-17.4,15.9c-2.8,63.2-54.5,115.2-117.7,117.5c-9.2,0.3-16.4,8.1-16.1,17.3
			c0.3,9,7.7,16.1,16.7,16.1c0.2,0,0.4,0,0.6,0c80.4-3,146.3-69,149.8-149.4C412.1,286.5,404.9,278.7,395.7,278.3z"/>
	</g>
</g>
</svg>
